<svg width="1078" height="866" viewBox="0 0 1078 866" fill="none" xmlns="http://www.w3.org/2000/svg">
    <path d="M69 126.364C69 118.133 75.633 111.44 83.8638 111.365L399.5 108.5L437.5 113.5L474.32 123.189C475.105 123.396 475.873 123.666 476.614 123.997L508 138L532.177 152.199C536.72 154.867 542.33 154.956 546.956 152.433L584.831 131.774C591.257 128.269 598.05 125.479 605.085 123.457L634.5 115L676 109L995.41 107.09C1003.73 107.04 1010.5 113.771 1010.5 122.09V146C1010.5 154.284 1017.22 161 1025.5 161H1062.5C1070.78 161 1077.5 167.716 1077.5 176V741.5C1077.5 749.784 1070.78 756.5 1062.5 756.5H15C6.71576 756.5 0 749.784 0 741.5V178.5C0 170.216 6.71573 163.5 15 163.5H54C62.2843 163.5 69 156.784 69 148.5V126.364Z" fill="#F8F8F8" />
    <g clip-path="url(#clip0_111_5944)">
        <path d="M1060.19 162.375H1009.75V121.781C1009.75 118.192 1007.98 114.751 1004.83 112.213C1001.67 109.676 997.396 108.25 992.938 108.25H701.409C641.588 108.165 583.804 125.737 539 157.639C494.196 125.737 436.412 108.165 376.591 108.25H85.0625C80.6035 108.25 76.3272 109.676 73.1743 112.213C70.0213 114.751 68.25 118.192 68.25 121.781V162.375H17.8125C13.3535 162.375 9.07722 163.801 5.92427 166.338C2.77131 168.876 1 172.317 1 175.906L1 744.219C1 747.807 2.77131 751.249 5.92427 753.787C9.07722 756.324 13.3535 757.75 17.8125 757.75H1060.19C1064.65 757.75 1068.92 756.324 1072.08 753.787C1075.23 751.249 1077 747.807 1077 744.219V175.906C1077 172.317 1075.23 168.876 1072.08 166.338C1068.92 163.801 1064.65 162.375 1060.19 162.375ZM976.125 135.312V676.562H701.409C649.031 676.434 597.989 689.859 555.812 714.856V181.589C595.186 151.721 647.303 135.156 701.409 135.312H976.125ZM101.875 135.312H376.591C430.697 135.156 482.814 151.721 522.188 181.589V714.856C480.011 689.859 428.969 676.434 376.591 676.562H101.875V135.312ZM34.625 189.437H68.25V690.094C68.25 693.682 70.0213 697.124 73.1743 699.662C76.3272 702.199 80.6035 703.625 85.0625 703.625H376.591C417.255 703.557 457.075 712.956 491.252 730.687H34.625V189.437ZM1043.38 730.687H586.748C656.688 694.559 691.657 703.625 992.938 703.625C997.396 703.625 1001.67 702.199 1004.83 699.662C1007.98 697.124 1009.75 693.682 1009.75 690.094V189.437H1043.38V730.687Z" fill="#0B2114" />
        <path d="M202.75 216.5C383.148 216.5 410.384 212.035 464.857 231.926C468.86 233.144 473.289 233.088 477.243 231.77C481.196 230.451 484.376 227.968 486.134 224.828C487.892 221.688 488.095 218.126 486.704 214.869C485.312 211.612 482.429 208.904 478.643 207.299C413.915 183.619 372.556 189.437 202.75 189.437C198.291 189.437 194.015 190.863 190.862 193.401C187.709 195.938 185.938 199.38 185.938 202.969C185.938 206.557 187.709 209.999 190.862 212.537C194.015 215.074 198.291 216.5 202.75 216.5V216.5Z" fill="#0B2114" />
        <path d="M478.643 274.955C450.303 264.412 419.71 258.348 388.528 257.094C384.069 256.914 379.704 258.168 376.394 260.578C373.083 262.989 371.098 266.36 370.875 269.948C370.652 273.537 372.21 277.05 375.205 279.714C378.2 282.379 382.388 283.977 386.847 284.156C413.816 285.141 440.299 290.286 464.857 299.311C468.729 300.204 472.871 299.948 476.528 298.59C480.186 297.232 483.116 294.862 484.786 291.912C486.455 288.962 486.754 285.628 485.626 282.516C484.499 279.404 482.021 276.72 478.643 274.955V274.955Z" fill="#0B2114" />
        <path d="M152.312 284.156H320.438C324.896 284.156 329.173 282.731 332.326 280.193C335.479 277.655 337.25 274.214 337.25 270.625C337.25 267.036 335.479 263.595 332.326 261.057C329.173 258.519 324.896 257.094 320.438 257.094H152.312C147.854 257.094 143.577 258.519 140.424 261.057C137.271 263.595 135.5 267.036 135.5 270.625C135.5 274.214 137.271 277.655 140.424 280.193C143.577 282.731 147.854 284.156 152.312 284.156V284.156Z" fill="#0B2114" />
        <path d="M152.312 351.812C386.174 351.812 409.039 346.806 464.857 367.238C468.86 368.457 473.289 368.401 477.243 367.082C481.196 365.763 484.376 363.281 486.134 360.14C487.892 357 488.095 353.438 486.704 350.181C485.312 346.924 482.429 344.217 478.643 342.611C414.251 319.067 382.644 324.75 152.312 324.75C147.854 324.75 143.577 326.175 140.424 328.713C137.271 331.251 135.5 334.692 135.5 338.281C135.5 341.87 137.271 345.312 140.424 347.849C143.577 350.387 147.854 351.812 152.312 351.812V351.812Z" fill="#0B2114" />
        <path d="M478.643 410.267C421.313 389.429 380.458 392.406 320.438 392.406C315.979 392.406 311.702 393.832 308.549 396.369C305.396 398.907 303.625 402.349 303.625 405.937C303.625 409.526 305.396 412.968 308.549 415.505C311.702 418.043 315.979 419.469 320.438 419.469C378.441 419.469 414.588 416.492 464.857 434.894C468.86 436.113 473.289 436.057 477.243 434.738C481.196 433.419 484.376 430.937 486.134 427.797C487.892 424.656 488.095 421.095 486.704 417.838C485.312 414.58 482.429 411.873 478.643 410.267V410.267Z" fill="#0B2114" />
        <path d="M152.312 419.469H253.188C257.646 419.469 261.923 418.043 265.076 415.506C268.229 412.968 270 409.526 270 405.938C270 402.349 268.229 398.907 265.076 396.369C261.923 393.832 257.646 392.406 253.188 392.406H152.312C147.854 392.406 143.577 393.832 140.424 396.369C137.271 398.907 135.5 402.349 135.5 405.938C135.5 409.526 137.271 412.968 140.424 415.506C143.577 418.043 147.854 419.469 152.312 419.469V419.469Z" fill="#0B2114" />
        <path d="M152.312 487.125C386.174 487.125 409.039 482.118 464.857 502.551C468.86 503.769 473.289 503.713 477.243 502.395C481.196 501.076 484.376 498.593 486.134 495.453C487.892 492.313 488.095 488.751 486.704 485.494C485.312 482.237 482.429 479.529 478.643 477.924C414.251 454.379 382.644 460.062 152.312 460.062C147.854 460.062 143.577 461.488 140.424 464.026C137.271 466.563 135.5 470.005 135.5 473.594C135.5 477.182 137.271 480.624 140.424 483.162C143.577 485.699 147.854 487.125 152.312 487.125V487.125Z" fill="#0B2114" />
        <path d="M478.643 545.58C415.428 522.441 370.875 527.719 253.188 527.719C248.729 527.719 244.452 529.144 241.299 531.682C238.146 534.219 236.375 537.661 236.375 541.25C236.375 544.839 238.146 548.28 241.299 550.818C244.452 553.356 248.729 554.781 253.188 554.781C375.583 554.781 411.225 550.587 464.857 570.207C468.86 571.425 473.289 571.37 477.243 570.051C481.196 568.732 484.376 566.249 486.134 563.109C487.892 559.969 488.095 556.407 486.704 553.15C485.312 549.893 482.429 547.186 478.643 545.58V545.58Z" fill="#0B2114" />
        <path d="M152.312 554.781H185.938C190.396 554.781 194.673 553.356 197.826 550.818C200.979 548.28 202.75 544.839 202.75 541.25C202.75 537.661 200.979 534.219 197.826 531.682C194.673 529.144 190.396 527.719 185.938 527.719H152.312C147.854 527.719 143.577 529.144 140.424 531.682C137.271 534.219 135.5 537.661 135.5 541.25C135.5 544.839 137.271 548.28 140.424 550.818C143.577 553.356 147.854 554.781 152.312 554.781V554.781Z" fill="#0B2114" />
        <path d="M152.312 622.437H376.591C381.05 622.437 385.327 621.012 388.479 618.474C391.632 615.937 393.404 612.495 393.404 608.906C393.404 605.317 391.632 601.876 388.479 599.338C385.327 596.801 381.05 595.375 376.591 595.375H152.312C147.854 595.375 143.577 596.801 140.424 599.338C137.271 601.876 135.5 605.317 135.5 608.906C135.5 612.495 137.271 615.937 140.424 618.474C143.577 621.012 147.854 622.437 152.312 622.437V622.437Z" fill="#0B2114" />
        <path d="M701.409 216.5H925.687C930.146 216.5 934.423 215.074 937.576 212.537C940.729 209.999 942.5 206.557 942.5 202.969C942.5 199.38 940.729 195.938 937.576 193.401C934.423 190.863 930.146 189.438 925.687 189.438H701.409C696.95 189.438 692.673 190.863 689.52 193.401C686.367 195.938 684.596 199.38 684.596 202.969C684.596 206.557 686.367 209.999 689.52 212.537C692.673 215.074 696.95 216.5 701.409 216.5Z" fill="#0B2114" />
        <path d="M606.25 300.8C636.519 290.823 668.725 285.19 701.409 284.156H925.688C930.147 284.156 934.423 282.731 937.576 280.193C940.729 277.655 942.5 274.214 942.5 270.625C942.5 267.036 940.729 263.594 937.576 261.057C934.423 258.519 930.147 257.094 925.688 257.094C690.313 257.094 662.236 251.952 599.357 274.955C595.869 276.234 593.029 278.434 591.307 281.19C589.585 283.946 589.085 287.092 589.889 290.108C590.694 293.125 592.754 295.829 595.73 297.773C598.705 299.718 602.417 300.785 606.25 300.8Z" fill="#0B2114" />
        <path d="M925.688 324.75H824.812C820.354 324.75 816.077 326.176 812.924 328.713C809.771 331.251 808 334.693 808 338.281C808 341.87 809.771 345.312 812.924 347.849C816.077 350.387 820.354 351.812 824.812 351.812H925.688C930.146 351.812 934.423 350.387 937.576 347.849C940.729 345.312 942.5 341.87 942.5 338.281C942.5 334.693 940.729 331.251 937.576 328.713C934.423 326.176 930.146 324.75 925.688 324.75Z" fill="#0B2114" />
        <path d="M606.25 368.456C636.519 358.479 668.725 352.846 701.409 351.812H757.563C762.022 351.812 766.298 350.387 769.451 347.849C772.604 345.312 774.375 341.87 774.375 338.281C774.375 334.692 772.604 331.251 769.451 328.713C766.298 326.176 762.022 324.75 757.563 324.75C697.206 324.75 656.688 321.773 599.357 342.611C595.869 343.89 593.029 346.09 591.307 348.846C589.585 351.602 589.085 354.749 589.889 357.765C590.694 360.781 592.754 363.485 595.73 365.43C598.705 367.374 602.417 368.442 606.25 368.456Z" fill="#0B2114" />
        <path d="M606.25 436.112C636.519 426.135 668.725 420.502 701.409 419.469H925.688C930.147 419.469 934.423 418.043 937.576 415.505C940.729 412.968 942.5 409.526 942.5 405.937C942.5 402.349 940.729 398.907 937.576 396.369C934.423 393.832 930.147 392.406 925.688 392.406C690.313 392.406 662.236 387.264 599.357 410.267C595.869 411.546 593.029 413.746 591.307 416.502C589.585 419.258 589.085 422.405 589.889 425.421C590.694 428.437 592.754 431.141 595.73 433.086C598.705 435.03 602.417 436.098 606.25 436.112V436.112Z" fill="#0B2114" />
        <path d="M925.688 460.062H908.875C904.416 460.062 900.14 461.488 896.987 464.026C893.834 466.563 892.062 470.005 892.062 473.594C892.062 477.182 893.834 480.624 896.987 483.162C900.14 485.699 904.416 487.125 908.875 487.125H925.688C930.146 487.125 934.423 485.699 937.576 483.162C940.729 480.624 942.5 477.182 942.5 473.594C942.5 470.005 940.729 466.563 937.576 464.026C934.423 461.488 930.146 460.062 925.688 460.062Z" fill="#0B2114" />
        <path d="M606.25 503.768C636.519 493.791 668.725 488.159 701.409 487.125H841.625C846.084 487.125 850.36 485.699 853.513 483.162C856.666 480.624 858.438 477.183 858.438 473.594C858.438 470.005 856.666 466.563 853.513 464.026C850.36 461.488 846.084 460.063 841.625 460.063C704.267 460.063 661.227 455.191 599.357 477.924C595.869 479.203 593.029 481.402 591.307 484.158C589.585 486.914 589.085 490.061 589.889 493.077C590.694 496.093 592.754 498.798 595.73 500.742C598.705 502.687 602.417 503.754 606.25 503.768V503.768Z" fill="#0B2114" />
        <path d="M925.688 527.719H791.188C786.729 527.719 782.452 529.144 779.299 531.682C776.146 534.219 774.375 537.661 774.375 541.25C774.375 544.839 776.146 548.28 779.299 550.818C782.452 553.356 786.729 554.781 791.188 554.781H925.688C930.146 554.781 934.423 553.356 937.576 550.818C940.729 548.28 942.5 544.839 942.5 541.25C942.5 537.661 940.729 534.219 937.576 531.682C934.423 529.144 930.146 527.719 925.688 527.719Z" fill="#0B2114" />
        <path d="M606.25 571.425C636.519 561.448 668.725 555.815 701.409 554.781H723.938C728.397 554.781 732.673 553.356 735.826 550.818C738.979 548.28 740.75 544.839 740.75 541.25C740.75 537.661 738.979 534.219 735.826 531.682C732.673 529.144 728.397 527.719 723.938 527.719C681.229 525.503 638.488 531.631 599.357 545.58C595.869 546.859 593.029 549.059 591.307 551.815C589.585 554.571 589.085 557.717 589.889 560.733C590.694 563.75 592.754 566.454 595.73 568.398C598.705 570.343 602.417 571.41 606.25 571.425V571.425Z" fill="#0B2114" />
        <path d="M606.25 639.081C636.519 629.104 668.725 623.471 701.409 622.437H875.25C879.709 622.437 883.985 621.012 887.138 618.474C890.291 615.937 892.063 612.495 892.063 608.906C892.063 605.317 890.291 601.876 887.138 599.338C883.985 596.801 879.709 595.375 875.25 595.375C690.313 595.375 660.554 590.774 599.357 613.236C595.869 614.515 593.029 616.715 591.307 619.471C589.585 622.227 589.085 625.374 589.889 628.39C590.694 631.406 592.754 634.11 595.73 636.055C598.705 637.999 602.417 639.067 606.25 639.081V639.081Z" fill="#0B2114" />
    </g>
    <defs>
        <clipPath id="clip0_111_5944">
            <rect width="1076" height="866" fill="white" transform="translate(1)" />
        </clipPath>
    </defs>
</svg>